<?xml version="1.0" standalone="no"?><!DOCTYPE svg PUBLIC "-//W3C//DTD SVG 1.1//EN" "http://www.w3.org/Graphics/SVG/1.1/DTD/svg11.dtd"><svg t="1622453959521" class="icon" viewBox="0 0 1024 1024" version="1.1" xmlns="http://www.w3.org/2000/svg" p-id="805" width="48" height="48" xmlns:xlink="http://www.w3.org/1999/xlink"><defs><style type="text/css"></style></defs><path d="M512 113.777778c29.297778 0 53.077333 23.836444 53.077333 53.475555v291.612445h291.669334c27.420444 0 50.062222 20.366222 53.134222 46.876444L910.222222 512a53.248 53.248 0 0 1-53.475555 53.077333H565.077333v291.669334c0 27.420444-20.309333 50.062222-46.819555 53.134222L512 910.222222a53.248 53.248 0 0 1-53.077333-53.475555l-0.056889-291.669334H167.253333A53.191111 53.191111 0 0 1 113.777778 512c0-29.297778 23.836444-53.077333 53.475555-53.077333l291.612445-0.056889V167.253333c0-29.525333 23.608889-53.475556 53.134222-53.475555z" p-id="806" fill="#ffffff"></path></svg>